<svg version="1.1" id="Layer_1" xmlns="http://www.w3.org/2000/svg" xmlns:xlink="http://www.w3.org/1999/xlink" x="0px" y="0px"
	 width="100%" viewBox="0 0 656 688" enable-background="new 0 0 656 688" xml:space="preserve">
<path fill="#000000" opacity="1.000000" stroke="none" 
	d="
M405.000122,471.629028 
	C424.608795,471.628662 443.717499,471.628662 462.492126,471.628662 
	C463.990540,474.367371 462.683685,476.178864 462.084900,477.985138 
	C454.387238,501.204376 446.696198,524.426453 438.811981,547.582581 
	C437.499634,551.436951 437.587097,554.846313 438.869812,558.664429 
	C446.710388,582.002563 454.366608,605.402771 462.085022,628.781982 
	C464.032898,634.682129 463.665833,635.206543 457.171753,635.208435 
	C374.699951,635.233032 292.228119,635.244080 209.756317,635.259583 
	C198.260254,635.261719 186.764160,635.283813 175.268112,635.268738 
	C168.217361,635.259460 167.874924,634.824036 170.049866,628.264343 
	C177.798569,604.893738 185.553955,581.525146 193.386902,558.182739 
	C194.433548,555.063721 194.588562,552.221008 193.506866,549.004028 
	C185.710434,525.817810 178.073181,502.578003 170.425400,479.342072 
	C169.710449,477.169861 168.466660,475.082733 169.047638,471.629425 
	C247.455505,471.629425 325.977783,471.629425 405.000122,471.629028 
M375.781921,547.475281 
	C375.777496,541.514343 375.786530,535.553345 375.758423,529.592529 
	C375.752075,528.252869 375.711395,526.720764 373.919189,526.597473 
	C371.897430,526.458374 371.450409,528.016296 371.442657,529.594482 
	C371.396271,539.031616 371.398529,548.469055 371.414124,557.906433 
	C371.416168,559.146179 371.837067,560.284607 373.286743,560.403259 
	C375.009003,560.544189 375.640411,559.349609 375.684509,557.897034 
	C375.780029,554.753967 375.752869,551.607178 375.781921,547.475281 
M314.684357,544.492676 
	C314.676300,539.691467 314.684387,534.890137 314.650574,530.089111 
	C314.639954,528.580139 314.618530,526.813110 312.621246,526.693787 
	C310.574493,526.571533 310.362976,528.299561 310.357880,529.832336 
	C310.327454,538.937744 310.327576,548.043396 310.351440,557.148804 
	C310.355377,558.653381 310.415588,560.476807 312.508881,560.323364 
	C314.377014,560.186523 314.611664,558.437683 314.634674,556.908630 
	C314.691925,553.101685 314.672821,549.293579 314.684357,544.492676 
M317.306732,543.510315 
	C317.309296,547.666992 317.250580,551.825012 317.343994,555.979614 
	C317.382233,557.679565 316.730103,560.200256 319.353455,560.334045 
	C322.020386,560.470093 321.658630,557.985168 321.665131,556.241516 
	C321.696625,547.762207 321.699707,539.281982 321.586365,530.803772 
	C321.566437,529.312378 322.123230,527.332825 319.054443,526.337402 
	C316.141144,531.468506 317.771851,537.163696 317.306732,543.510315 
M352.664825,531.936646 
	C352.355011,530.146606 353.457062,527.860779 350.926392,526.787231 
	C348.347198,527.546753 348.388489,529.693481 348.370239,531.619873 
	C348.291992,539.893555 348.299835,548.168335 348.325012,556.442505 
	C348.329895,558.046204 348.054871,560.273743 350.331879,560.309875 
	C352.945679,560.351318 352.634644,557.948547 352.645447,556.196045 
	C352.693481,548.411438 352.666687,540.626404 352.664825,531.936646 
M402.303436,554.166504 
	C402.822906,556.186157 401.019043,559.864380 404.190399,559.865295 
	C407.445496,559.866272 406.579865,556.114197 406.614258,553.806763 
	C406.725311,546.358704 406.670593,538.907532 406.621948,531.458008 
	C406.611176,529.808899 406.570892,527.664246 404.433411,527.616943 
	C402.108765,527.565369 402.356567,529.810852 402.343842,531.397339 
	C402.285492,538.681213 402.309509,545.965820 402.303436,554.166504 
M256.324799,531.179260 
	C256.342499,539.306519 256.336334,547.433899 256.398285,555.560791 
	C256.410461,557.158142 256.139252,559.370300 258.404358,559.463135 
	C260.693298,559.557007 260.622711,557.380554 260.630371,555.755310 
	C260.669586,547.461182 260.656189,539.166565 260.622192,530.872314 
	C260.616913,529.579285 260.782166,527.897644 259.146973,527.554871 
	C257.140381,527.134277 256.803162,528.891968 256.324799,531.179260 
M229.677338,537.633728 
	C229.315613,534.094421 230.696899,530.191040 227.772614,526.876465 
	C224.453156,531.451477 224.349655,555.769592 228.231995,560.428650 
	C230.920990,552.771484 229.095123,545.551331 229.677338,537.633728 
M386.247314,536.590515 
	C386.251465,540.738220 386.025543,544.902710 386.327362,549.028625 
	C386.604248,552.813110 384.830811,557.079102 388.164246,560.766052 
	C391.201050,555.823242 390.676727,529.218811 387.651581,526.730835 
	C385.139587,529.404236 386.711914,532.700928 386.247314,536.590515 
M290.829773,544.495911 
	C290.113342,538.597473 292.326141,532.323914 289.042511,526.022705 
	C286.385010,530.441650 286.476135,556.938416 289.136475,560.934021 
	C292.173248,555.734436 290.215790,550.425720 290.829773,544.495911 
M236.757248,550.407959 
	C236.505798,542.562073 237.294800,534.638672 236.114655,525.683411 
	C231.862488,530.535156 231.925537,556.817688 235.258163,560.231628 
	C237.862564,557.589233 236.319885,554.288818 236.757248,550.407959 
M336.024597,537.555664 
	C335.567200,534.275330 337.170502,530.688538 334.728729,527.559021 
	C331.211060,531.146118 331.072052,557.184998 334.974548,560.714539 
	C337.042236,553.129700 335.532410,545.758423 336.024597,537.555664 
M280.056427,539.523132 
	C279.655029,535.564392 281.023895,531.370605 278.869873,527.316162 
	C275.388214,530.759033 275.081268,556.529419 279.099731,561.245972 
	C280.834930,553.762695 279.740051,547.067932 280.056427,539.523132 
M344.325287,549.190430 
	C344.325287,551.003052 344.325287,552.815674 344.325287,554.628296 
	C344.477844,554.627502 344.630432,554.626648 344.782990,554.625854 
	C344.782990,547.534546 344.782990,540.443237 344.782990,533.351929 
	C344.630066,533.351257 344.477112,533.350525 344.324188,533.349854 
	C344.324188,538.326111 344.324188,543.302429 344.325287,549.190430 
M294.769012,536.905457 
	C294.769012,535.393494 294.769012,533.881531 294.769012,532.369507 
	C294.626678,532.372925 294.484344,532.376282 294.342010,532.379639 
	C294.342010,538.812073 294.342010,545.244568 294.342010,551.677002 
	C294.482025,551.677307 294.622009,551.677551 294.762024,551.677856 
	C294.762024,547.050232 294.762024,542.422546 294.769012,536.905457 
M359.695221,533.221985 
	C359.492889,533.020691 360.019440,532.208496 359.162750,532.579346 
	C359.078644,532.615845 359.067352,532.882080 359.067200,533.041687 
	C359.062439,537.908936 359.063293,542.776184 359.063293,547.643433 
	C359.277222,547.641968 359.491119,547.640503 359.705048,547.639038 
	C359.705048,543.046875 359.705048,538.454712 359.695221,533.221985 
z"/>
<path fill="#000000" opacity="1.000000" stroke="none" 
	d="
M385.482788,269.019318 
	C405.509125,293.934875 425.319977,318.614044 445.269501,343.180634 
	C449.006683,347.782806 453.459045,351.476349 460.136322,350.836914 
	C463.794617,350.486603 463.865753,353.290253 463.925323,355.909576 
	C463.986877,358.616241 463.232910,360.359650 460.009521,360.330322 
	C449.845825,360.237793 439.679810,360.216705 429.516907,360.344696 
	C426.513947,360.382507 425.073151,358.513519 423.490173,356.565216 
	C405.110870,333.944244 386.752655,311.306030 368.293640,288.750275 
	C366.643463,286.733887 365.719421,283.211853 362.091339,283.913513 
	C359.035980,284.504425 352.384430,291.860168 352.372253,294.565552 
	C352.300079,310.561432 352.246368,326.558929 352.414062,342.553467 
	C352.459747,346.915833 356.105164,349.968872 361.177460,350.603638 
	C362.822540,350.809540 364.514740,350.843567 366.169250,350.727051 
	C369.665894,350.480835 371.348541,351.665924 371.342255,355.508698 
	C371.336121,359.259430 369.870483,360.386261 366.272949,360.359741 
	C349.277405,360.234528 332.279968,360.240906 315.284302,360.357178 
	C311.831818,360.380768 310.550995,359.176971 310.613617,355.710083 
	C310.670502,352.562469 311.280151,350.851685 314.975403,350.656281 
	C325.298737,350.110352 327.666046,347.410950 327.666901,337.070099 
	C327.671509,281.582062 327.670868,226.094055 327.667114,170.606033 
	C327.666321,159.267822 325.222839,156.402710 313.953186,155.441071 
	C310.682526,155.161957 309.635742,153.972748 309.674500,150.861694 
	C309.712463,147.820007 310.210358,146.022034 313.917694,145.592255 
	C324.536835,144.361221 334.810089,141.614716 344.534180,137.051437 
	C351.271790,133.889618 352.310211,134.511169 352.309540,141.739761 
	C352.305756,182.397980 352.301453,223.056198 352.327240,263.714417 
	C352.328674,265.992371 351.931946,268.354156 353.576630,271.798645 
	C368.888214,259.203552 384.548462,247.836838 398.675049,235.004105 
	C397.602966,232.543823 396.239777,232.260651 394.918671,232.316849 
	C391.185211,232.475708 390.728088,230.320602 390.595367,227.228699 
	C390.421143,223.171158 391.788239,221.609665 395.995026,221.670944 
	C409.322723,221.865021 422.656036,221.824799 435.985046,221.679688 
	C439.761658,221.638565 441.387482,222.786377 441.355835,226.809036 
	C441.326080,230.595184 440.132721,232.441940 436.203796,232.264954 
	C429.146606,231.947083 423.285583,234.879089 417.999237,239.226929 
	C407.965393,247.479385 397.920258,255.718567 387.954132,264.052155 
	C386.578308,265.202576 384.159576,266.051178 385.482788,269.019318 
z"/>
<path fill="#000000" opacity="1.000000" stroke="none" 
	d="
M217.579269,238.539017 
	C200.435287,245.000000 193.684113,258.914062 191.639145,275.093323 
	C188.774765,297.755463 196.108902,317.591339 212.428711,333.580109 
	C226.536682,347.401886 243.478180,347.123566 260.864990,341.267212 
	C269.484253,338.364014 277.082855,333.590302 282.829071,326.266449 
	C283.992096,324.784119 285.166046,322.414337 287.508118,324.685547 
	C289.400879,326.521027 292.364258,327.951965 290.176056,331.647491 
	C285.070190,340.270630 278.581635,347.695038 269.951172,352.681549 
	C251.239349,363.492889 231.080032,367.431580 209.891556,362.240417 
	C195.452759,358.702942 185.869568,348.366333 178.471359,336.098633 
	C165.131470,313.978394 165.193115,290.980652 175.394562,267.821625 
	C180.649658,255.891647 187.132721,244.502518 197.325607,235.988205 
	C209.061417,226.185104 222.543549,220.328354 237.940720,218.494156 
	C251.187592,216.916092 263.699860,219.425583 276.231598,222.993011 
	C279.313690,223.870407 280.623138,225.394791 280.331238,228.661194 
	C279.784210,234.781845 279.646729,240.941086 279.021118,247.051712 
	C278.792816,249.281418 279.043793,252.432617 275.201782,252.311218 
	C272.164551,252.215271 269.267639,253.028900 267.624969,248.709610 
	C264.721832,241.076157 257.449341,238.377411 250.329269,236.602936 
	C239.463242,233.894867 228.560287,234.602570 217.579269,238.539017 
z"/>
</svg>