<?xml version="1.0" encoding="UTF-8"?>
<!DOCTYPE svg PUBLIC "-//W3C//DTD SVG 1.1//EN" "http://www.w3.org/Graphics/SVG/1.1/DTD/svg11.dtd">
<svg xmlns="http://www.w3.org/2000/svg" version="1.1" width="667px" height="698px" style="shape-rendering:geometricPrecision; text-rendering:geometricPrecision; image-rendering:optimizeQuality; fill-rule:evenodd; clip-rule:evenodd" xmlns:xlink="http://www.w3.org/1999/xlink">
<g><path style="opacity:1" fill="#fefefe" d="M -0.5,-0.5 C 221.833,-0.5 444.167,-0.5 666.5,-0.5C 666.5,232.167 666.5,464.833 666.5,697.5C 444.167,697.5 221.833,697.5 -0.5,697.5C -0.5,464.833 -0.5,232.167 -0.5,-0.5 Z"/></g>
<g><path style="opacity:1" fill="#bfbfb9" d="M 313.5,144.5 C 312.432,145.434 311.099,145.768 309.5,145.5C 309.5,148.167 309.5,150.833 309.5,153.5C 308.523,150.713 308.19,147.713 308.5,144.5C 310.167,144.5 311.833,144.5 313.5,144.5 Z"/></g>
<g><path style="opacity:1" fill="#98988e" d="M 368.5,350.5 C 368.5,352.833 368.5,355.167 368.5,357.5C 348.833,357.5 329.167,357.5 309.5,357.5C 309.5,354.833 309.5,352.167 309.5,349.5C 316.016,350.763 321.516,349.096 326,344.5C 326.667,282.833 326.667,221.167 326,159.5C 325.052,157.43 323.552,155.93 321.5,155C 317.582,153.844 313.582,153.344 309.5,153.5C 309.5,150.833 309.5,148.167 309.5,145.5C 311.099,145.768 312.432,145.434 313.5,144.5C 318.198,143.9 322.864,143.067 327.5,142C 335.009,138.997 342.676,136.497 350.5,134.5C 350.333,180.501 350.5,226.501 351,272.5C 366.151,259.927 381.484,247.593 397,235.5C 398.401,233.854 398.568,232.187 397.5,230.5C 394.916,229.607 392.249,229.274 389.5,229.5C 389.5,226.833 389.5,224.167 389.5,221.5C 405.833,221.5 422.167,221.5 438.5,221.5C 438.5,224.167 438.5,226.833 438.5,229.5C 432.667,229.875 427,231.042 421.5,233C 407.875,243.622 394.542,254.622 381.5,266C 401.333,290.5 421.167,315 441,339.5C 444.201,343.036 447.701,346.203 451.5,349C 454.817,349.498 458.15,349.665 461.5,349.5C 461.5,352.5 461.5,355.5 461.5,358.5C 449.495,358.667 437.495,358.5 425.5,358C 404.326,331.996 382.992,306.163 361.5,280.5C 357.721,283.145 354.221,286.145 351,289.5C 350.333,307.833 350.333,326.167 351,344.5C 352.34,345.868 353.674,347.201 355,348.5C 359.648,349.087 364.148,349.754 368.5,350.5 Z"/></g>
<g><path style="opacity:1" fill="#cecec9" d="M 276.5,222.5 C 277.765,223.514 278.431,225.014 278.5,227C 278.492,228.707 278.158,230.207 277.5,231.5C 277.736,228.391 277.403,225.391 276.5,222.5 Z"/></g>
<g><path style="opacity:1" fill="#98988e" d="M 276.5,222.5 C 277.403,225.391 277.736,228.391 277.5,231.5C 276.89,237.815 276.557,244.149 276.5,250.5C 273.5,250.5 270.5,250.5 267.5,250.5C 267.54,247.575 266.707,244.909 265,242.5C 259.907,238.204 254.074,235.371 247.5,234C 211.391,228.964 191.724,244.464 188.5,280.5C 189.157,304.985 199.157,324.485 218.5,339C 236.709,345.925 254.375,344.591 271.5,335C 276.342,331.324 280.675,327.158 284.5,322.5C 286.149,323.648 287.649,324.981 289,326.5C 282.521,340.303 272.021,350.136 257.5,356C 213.03,372.513 183.53,358.346 169,313.5C 164.95,281.657 174.783,254.824 198.5,233C 215.632,219.883 234.965,214.883 256.5,218C 263.274,219.187 269.941,220.687 276.5,222.5 Z"/></g>
<g><path style="opacity:1" fill="#b3b3ac" d="M 368.5,350.5 C 369.473,352.948 369.806,355.615 369.5,358.5C 349.326,358.83 329.326,358.497 309.5,357.5C 329.167,357.5 348.833,357.5 368.5,357.5C 368.5,355.167 368.5,352.833 368.5,350.5 Z"/></g>
<g><path style="opacity:1" fill="#97978d" d="M 167.5,470.5 C 265.502,470.167 363.502,470.5 461.5,471.5C 452.324,497.86 443.658,524.36 435.5,551C 443.859,577.91 452.525,604.744 461.5,631.5C 363.5,632.833 265.5,632.833 167.5,631.5C 176.496,604.844 185.496,578.178 194.5,551.5C 184.906,524.719 175.906,497.719 167.5,470.5 Z"/></g>
<g><path style="opacity:1" fill="#fcfcfc" d="M 223.5,524.5 C 225.167,524.5 226.833,524.5 228.5,524.5C 228.5,536.167 228.5,547.833 228.5,559.5C 226.833,559.5 225.167,559.5 223.5,559.5C 223.5,547.833 223.5,536.167 223.5,524.5 Z"/></g>
<g><path style="opacity:1" fill="#f4f4f3" d="M 230.5,524.5 C 232.5,524.5 234.5,524.5 236.5,524.5C 236.5,536.167 236.5,547.833 236.5,559.5C 234.5,559.5 232.5,559.5 230.5,559.5C 230.5,547.833 230.5,536.167 230.5,524.5 Z"/></g>
<g><path style="opacity:1" fill="#f3f3f2" d="M 253.5,524.5 C 255.5,524.5 257.5,524.5 259.5,524.5C 259.5,536.167 259.5,547.833 259.5,559.5C 257.5,559.5 255.5,559.5 253.5,559.5C 253.5,547.833 253.5,536.167 253.5,524.5 Z"/></g>
<g><path style="opacity:1" fill="#f1f1f0" d="M 264.5,524.5 C 265.829,529.96 266.496,535.793 266.5,542C 266.167,547.833 265.833,553.667 265.5,559.5C 264.501,547.852 264.168,536.186 264.5,524.5 Z"/></g>
<g><path style="opacity:1" fill="#f7f7f6" d="M 273.5,524.5 C 275.5,524.5 277.5,524.5 279.5,524.5C 279.5,536.167 279.5,547.833 279.5,559.5C 277.5,559.5 275.5,559.5 273.5,559.5C 273.5,547.833 273.5,536.167 273.5,524.5 Z"/></g>
<g><path style="opacity:1" fill="#d3d3cf" d="M 281.5,524.5 C 282.829,529.96 283.496,535.793 283.5,542C 283.167,547.833 282.833,553.667 282.5,559.5C 281.501,547.852 281.168,536.186 281.5,524.5 Z"/></g>
<g><path style="opacity:1" fill="#f5f5f4" d="M 284.5,524.5 C 286.5,524.5 288.5,524.5 290.5,524.5C 290.5,536.167 290.5,547.833 290.5,559.5C 288.5,559.5 286.5,559.5 284.5,559.5C 284.5,547.833 284.5,536.167 284.5,524.5 Z"/></g>
<g><path style="opacity:1" fill="#ededeb" d="M 291.5,524.5 C 292.829,529.96 293.496,535.793 293.5,542C 293.167,547.833 292.833,553.667 292.5,559.5C 291.501,547.852 291.168,536.186 291.5,524.5 Z"/></g>
<g><path style="opacity:1" fill="#f6f6f5" d="M 295.5,524.5 C 296.829,529.96 297.496,535.793 297.5,542C 297.167,547.833 296.833,553.667 296.5,559.5C 295.501,547.852 295.168,536.186 295.5,524.5 Z"/></g>
<g><path style="opacity:1" fill="#f1f2f0" d="M 304.5,524.5 C 305.829,529.96 306.496,535.793 306.5,542C 306.167,547.833 305.833,553.667 305.5,559.5C 304.501,547.852 304.168,536.186 304.5,524.5 Z"/></g>
<g><path style="opacity:1" fill="#fefffe" d="M 313.5,524.5 C 313.5,536.167 313.5,547.833 313.5,559.5C 311.833,559.5 310.167,559.5 308.5,559.5C 308.5,547.833 308.5,536.167 308.5,524.5C 310.167,524.5 311.833,524.5 313.5,524.5 Z"/></g>
<g><path style="opacity:1" fill="#a4a49b" d="M 313.5,524.5 C 314.167,524.5 314.833,524.5 315.5,524.5C 315.5,536.167 315.5,547.833 315.5,559.5C 317.167,559.5 318.833,559.5 320.5,559.5C 318.274,560.756 315.941,560.756 313.5,559.5C 313.5,547.833 313.5,536.167 313.5,524.5 Z"/></g>
<g><path style="opacity:1" fill="#fefffe" d="M 315.5,524.5 C 317.167,524.5 318.833,524.5 320.5,524.5C 320.5,536.167 320.5,547.833 320.5,559.5C 318.833,559.5 317.167,559.5 315.5,559.5C 315.5,547.833 315.5,536.167 315.5,524.5 Z"/></g>
<g><path style="opacity:1" fill="#f1f2f0" d="M 322.5,524.5 C 323.829,529.96 324.496,535.793 324.5,542C 324.167,547.833 323.833,553.667 323.5,559.5C 322.501,547.852 322.168,536.186 322.5,524.5 Z"/></g>
<g><path style="opacity:1" fill="#dcdcd8" d="M 326.5,524.5 C 327.829,529.96 328.496,535.793 328.5,542C 328.167,547.833 327.833,553.667 327.5,559.5C 326.501,547.852 326.168,536.186 326.5,524.5 Z"/></g>
<g><path style="opacity:1" fill="#f5f5f4" d="M 329.5,524.5 C 331.5,524.5 333.5,524.5 335.5,524.5C 335.5,536.167 335.5,547.833 335.5,559.5C 333.5,559.5 331.5,559.5 329.5,559.5C 329.5,547.833 329.5,536.167 329.5,524.5 Z"/></g>
<g><path style="opacity:1" fill="#ededeb" d="M 342.5,524.5 C 343.829,529.96 344.496,535.793 344.5,542C 344.167,547.833 343.833,553.667 343.5,559.5C 342.501,547.852 342.168,536.186 342.5,524.5 Z"/></g>
<g><path style="opacity:1" fill="#fdfdfd" d="M 346.5,524.5 C 348.167,524.5 349.833,524.5 351.5,524.5C 351.5,536.167 351.5,547.833 351.5,559.5C 349.833,559.5 348.167,559.5 346.5,559.5C 346.5,547.833 346.5,536.167 346.5,524.5 Z"/></g>
<g><path style="opacity:1" fill="#e4e4e1" d="M 353.5,524.5 C 354.829,529.96 355.496,535.793 355.5,542C 355.167,547.833 354.833,553.667 354.5,559.5C 353.501,547.852 353.168,536.186 353.5,524.5 Z"/></g>
<g><path style="opacity:1" fill="#f1f1f0" d="M 356.5,524.5 C 357.829,529.96 358.496,535.793 358.5,542C 358.167,547.833 357.833,553.667 357.5,559.5C 356.501,547.852 356.168,536.186 356.5,524.5 Z"/></g>
<g><path style="opacity:1" fill="#f1f1f0" d="M 365.5,524.5 C 366.829,529.96 367.496,535.793 367.5,542C 367.167,547.833 366.833,553.667 366.5,559.5C 365.501,547.852 365.168,536.186 365.5,524.5 Z"/></g>
<g><path style="opacity:1" fill="#f7f7f6" d="M 369.5,524.5 C 371.5,524.5 373.5,524.5 375.5,524.5C 375.5,536.167 375.5,547.833 375.5,559.5C 373.5,559.5 371.5,559.5 369.5,559.5C 369.5,547.833 369.5,536.167 369.5,524.5 Z"/></g>
<g><path style="opacity:1" fill="#f6f6f5" d="M 376.5,524.5 C 377.829,529.96 378.496,535.793 378.5,542C 378.167,547.833 377.833,553.667 377.5,559.5C 376.501,547.852 376.168,536.186 376.5,524.5 Z"/></g>
<g><path style="opacity:1" fill="#e4e4e2" d="M 380.5,524.5 C 381.829,529.96 382.496,535.793 382.5,542C 382.167,547.833 381.833,553.667 381.5,559.5C 380.501,547.852 380.168,536.186 380.5,524.5 Z"/></g>
<g><path style="opacity:1" fill="#f5f5f4" d="M 383.5,524.5 C 385.5,524.5 387.5,524.5 389.5,524.5C 389.5,536.167 389.5,547.833 389.5,559.5C 387.5,559.5 385.5,559.5 383.5,559.5C 383.5,547.833 383.5,536.167 383.5,524.5 Z"/></g>
<g><path style="opacity:1" fill="#dcdcd8" d="M 391.5,524.5 C 392.829,529.96 393.496,535.793 393.5,542C 393.167,547.833 392.833,553.667 392.5,559.5C 391.501,547.852 391.168,536.186 391.5,524.5 Z"/></g>
<g><path style="opacity:1" fill="#fefffe" d="M 400.5,524.5 C 402.167,524.5 403.833,524.5 405.5,524.5C 405.5,536.167 405.5,547.833 405.5,559.5C 403.833,559.5 402.167,559.5 400.5,559.5C 400.5,547.833 400.5,536.167 400.5,524.5 Z"/></g>
<g><path style="opacity:1" fill="#e2e2df" d="M 246.5,524.5 C 247.829,529.96 248.496,535.793 248.5,542C 248.167,547.833 247.833,553.667 247.5,559.5C 246.501,547.852 246.168,536.186 246.5,524.5 Z"/></g>
<g><path style="opacity:1" fill="#e3e3e0" d="M 261.5,524.5 C 262.829,529.96 263.496,535.793 263.5,542C 263.167,547.833 262.833,553.667 262.5,559.5C 261.501,547.852 261.168,536.186 261.5,524.5 Z"/></g>
<g><path style="opacity:1" fill="#ebebe9" d="M 237.5,524.5 C 238.829,529.96 239.496,535.793 239.5,542C 239.167,547.833 238.833,553.667 238.5,559.5C 237.501,547.852 237.168,536.186 237.5,524.5 Z"/></g>
<g><path style="opacity:1" fill="#eaeae8" d="M 250.5,524.5 C 251.829,529.96 252.496,535.793 252.5,542C 252.167,547.833 251.833,553.667 251.5,559.5C 250.501,547.852 250.168,536.186 250.5,524.5 Z"/></g>
<g><path style="opacity:1" fill="#b2b2aa" d="M 271.5,572.5 C 272.309,574.292 272.809,576.292 273,578.5C 273.667,574.167 273.667,569.833 273,565.5C 272.802,567.382 272.302,569.048 271.5,570.5C 271.5,568.5 271.5,566.5 271.5,564.5C 272.5,564.5 273.5,564.5 274.5,564.5C 274.5,569.5 274.5,574.5 274.5,579.5C 273.5,579.5 272.5,579.5 271.5,579.5C 271.5,577.167 271.5,574.833 271.5,572.5 Z"/></g>
<g><path style="opacity:1" fill="#d2d2ce" d="M 266.5,565.5 C 265.167,569.833 265.167,574.167 266.5,578.5C 266.44,579.043 266.107,579.376 265.5,579.5C 264.167,574.5 264.167,569.5 265.5,564.5C 266.107,564.624 266.44,564.957 266.5,565.5 Z"/></g>
<g><path style="opacity:1" fill="#ededeb" d="M 326.5,565.5 C 335.431,563.729 337.431,566.395 332.5,573.5C 333.624,574.914 334.624,576.414 335.5,578C 334.833,578.667 334.167,578.667 333.5,578C 330.606,570.699 328.606,570.866 327.5,578.5C 326.508,574.217 326.174,569.884 326.5,565.5 Z"/></g>
<g><path style="opacity:1" fill="#9c9c93" d="M 328.5,566.5 C 330.948,566.01 332.615,566.843 333.5,569C 332.381,570.876 330.714,571.709 328.5,571.5C 328.5,569.833 328.5,568.167 328.5,566.5 Z"/></g>
<g><path style="opacity:1" fill="#f1f1f0" d="M 236.5,565.5 C 238.527,565.338 240.527,565.505 242.5,566C 243.711,566.893 243.711,567.726 242.5,568.5C 238.237,565.333 235.903,566.499 235.5,572C 235.678,577.025 238.011,578.525 242.5,576.5C 243.696,576.846 243.696,577.346 242.5,578C 239.653,578.944 237.153,578.444 235,576.5C 234.013,572.525 234.513,568.859 236.5,565.5 Z"/></g>
<g><path style="opacity:1" fill="#e8e8e6" d="M 394.5,564.5 C 395.805,566.397 396.471,568.731 396.5,571.5C 396.167,573.833 395.833,576.167 395.5,578.5C 393.468,575.632 391.635,572.632 390,569.5C 389.821,572.553 389.321,575.553 388.5,578.5C 387.167,574.167 387.167,569.833 388.5,565.5C 390.493,567.666 392.327,569.999 394,572.5C 394.497,569.854 394.664,567.187 394.5,564.5 Z"/></g>
<g><path style="opacity:1" fill="#f2f2f1" d="M 266.5,565.5 C 266.5,567.167 266.5,568.833 266.5,570.5C 268.167,570.5 269.833,570.5 271.5,570.5C 272.302,569.048 272.802,567.382 273,565.5C 273.667,569.833 273.667,574.167 273,578.5C 272.809,576.292 272.309,574.292 271.5,572.5C 269.833,572.5 268.167,572.5 266.5,572.5C 266.5,574.5 266.5,576.5 266.5,578.5C 265.167,574.167 265.167,569.833 266.5,565.5 Z"/></g>
<g><path style="opacity:1" fill="#eaeae8" d="M 360.5,566.5 C 361.496,566.414 362.329,566.748 363,567.5C 363.67,571.011 364.837,574.344 366.5,577.5C 366.167,577.833 365.833,578.167 365.5,578.5C 362.705,573.209 360.038,573.209 357.5,578.5C 357.167,578 356.833,577.5 356.5,577C 358.272,573.63 359.605,570.13 360.5,566.5 Z"/></g>
<g><path style="opacity:1" fill="#9b9b92" d="M 360.5,570.5 C 362.048,570.821 362.715,571.821 362.5,573.5C 361.448,573.649 360.448,573.483 359.5,573C 360.252,572.329 360.586,571.496 360.5,570.5 Z"/></g>
<g><path style="opacity:1" fill="#ededec" d="M 299.5,565.5 C 301.815,568.908 303.482,572.741 304.5,577C 304.389,578.722 303.889,578.888 303,577.5C 302.517,576.552 302.351,575.552 302.5,574.5C 300.833,574.5 299.167,574.5 297.5,574.5C 297.688,576.103 297.188,577.437 296,578.5C 296.43,574.033 297.596,569.699 299.5,565.5 Z"/></g>
<g><path style="opacity:1" fill="#9b9b91" d="M 299.5,569.5 C 302.459,572.271 302.126,573.271 298.5,572.5C 299.127,571.583 299.461,570.583 299.5,569.5 Z"/></g>
</svg>
